<?xml version="1.0" encoding="utf-8"?>
<svg version="1.1" xmlns="http://www.w3.org/2000/svg" x="0px" y="0px" viewBox="0 0 45 45"><g id="amv-spinner" fill="white" transform="translate(22.5,22.5)">
	<g id="spinner-left">
		<path d="M-22.5,0c0-12.4,10.1-22.5,22.5-22.5v7.7c-8.2,0-14.8,6.6-14.8,14.8H-22.5z"/>
	    <animateTransform
	     attributeName="transform"
	     dur="1.33s"
	     type="rotate"
	     from="0"
	     to="720"
	     repeatCount="indefinite"
	     calcMode="spline"
	     keyTimes="0;1"
	     keySplines="0.25, 0.1, 0.25, 1" />
	</g>
	<g id="spinner-right">
		<path d="M0,22.5v-7.7c8.2,0,14.8-6.6,14.8-14.8h7.7C22.5,12.4,12.4,22.5,0,22.5z"/>
		<animateTransform
		  attributeName="transform"
		  begin="0.67s"
		  dur="1.33s"
		  type="rotate"
		  from="0"
		  to="720"
		  repeatCount="indefinite"
		  calcMode="spline"
		  keyTimes="0;1"
		  keySplines="0.25, 0.1, 0.25, 1"/>
	</g>
</g><g id="design-in-china-spinner" fill="white" transform="translate(22.5,22.5)">
	<g id="spinner-left">
		<path d="M-22.5,0c0-12.4,10.1-22.5,22.5-22.5v7.7c-8.2,0-14.8,6.6-14.8,14.8H-22.5z"/>
	    <animateTransform
	     attributeName="transform"
	     dur="1.33s"
	     type="rotate"
	     from="0"
	     to="720"
	     repeatCount="indefinite"
	     calcMode="spline"
	     keyTimes="0;1"
	     keySplines="0.25, 0.1, 0.25, 1" />
	</g>
	<g id="spinner-right">
		<path d="M0,22.5v-7.7c8.2,0,14.8-6.6,14.8-14.8h7.7C22.5,12.4,12.4,22.5,0,22.5z"/>
		<animateTransform
		  attributeName="transform"
		  begin="0.67s"
		  dur="1.33s"
		  type="rotate"
		  from="0"
		  to="720"
		  repeatCount="indefinite"
		  calcMode="spline"
		  keyTimes="0;1"
		  keySplines="0.25, 0.1, 0.25, 1"/>
	</g>
</g><g id="exercism-spinner" fill="#204ab6" transform="translate(22.5,22.5)">
	<g id="spinner-left">
		<path d="M-22.5,0c0-12.4,10.1-22.5,22.5-22.5v7.7c-8.2,0-14.8,6.6-14.8,14.8H-22.5z"/>
	    <animateTransform
	     attributeName="transform"
	     dur="1.33s"
	     type="rotate"
	     from="0"
	     to="720"
	     repeatCount="indefinite"
	     calcMode="spline"
	     keyTimes="0;1"
	     keySplines="0.25, 0.1, 0.25, 1" />
	</g>
	<g id="spinner-right">
		<path d="M0,22.5v-7.7c8.2,0,14.8-6.6,14.8-14.8h7.7C22.5,12.4,12.4,22.5,0,22.5z"/>
		<animateTransform
		  attributeName="transform"
		  begin="0.67s"
		  dur="1.33s"
		  type="rotate"
		  from="0"
		  to="720"
		  repeatCount="indefinite"
		  calcMode="spline"
		  keyTimes="0;1"
		  keySplines="0.25, 0.1, 0.25, 1"/>
	</g>
</g><g id="fridr-spinner" fill="#22dc9d" transform="translate(22.5,22.5)">
	<g id="spinner-left">
		<path d="M-22.5,0c0-12.4,10.1-22.5,22.5-22.5v7.7c-8.2,0-14.8,6.6-14.8,14.8H-22.5z"/>
	    <animateTransform
	     attributeName="transform"
	     dur="1.33s"
	     type="rotate"
	     from="0"
	     to="720"
	     repeatCount="indefinite"
	     calcMode="spline"
	     keyTimes="0;1"
	     keySplines="0.25, 0.1, 0.25, 1" />
	</g>
	<g id="spinner-right">
		<path d="M0,22.5v-7.7c8.2,0,14.8-6.6,14.8-14.8h7.7C22.5,12.4,12.4,22.5,0,22.5z"/>
		<animateTransform
		  attributeName="transform"
		  begin="0.67s"
		  dur="1.33s"
		  type="rotate"
		  from="0"
		  to="720"
		  repeatCount="indefinite"
		  calcMode="spline"
		  keyTimes="0;1"
		  keySplines="0.25, 0.1, 0.25, 1"/>
	</g>
</g><g id="guardian-spinner" fill="#d60270" transform="translate(22.5,22.5)">
	<g id="spinner-left">
		<path d="M-22.5,0c0-12.4,10.1-22.5,22.5-22.5v7.7c-8.2,0-14.8,6.6-14.8,14.8H-22.5z"/>
	    <animateTransform
	     attributeName="transform"
	     dur="1.33s"
	     type="rotate"
	     from="0"
	     to="720"
	     repeatCount="indefinite"
	     calcMode="spline"
	     keyTimes="0;1"
	     keySplines="0.25, 0.1, 0.25, 1" />
	</g>
	<g id="spinner-right">
		<path d="M0,22.5v-7.7c8.2,0,14.8-6.6,14.8-14.8h7.7C22.5,12.4,12.4,22.5,0,22.5z"/>
		<animateTransform
		  attributeName="transform"
		  begin="0.67s"
		  dur="1.33s"
		  type="rotate"
		  from="0"
		  to="720"
		  repeatCount="indefinite"
		  calcMode="spline"
		  keyTimes="0;1"
		  keySplines="0.25, 0.1, 0.25, 1"/>
	</g>
</g><g id="huawei-spinner" fill="white" transform="translate(22.5,22.5)">
	<g id="spinner-left">
		<path d="M-22.5,0c0-12.4,10.1-22.5,22.5-22.5v7.7c-8.2,0-14.8,6.6-14.8,14.8H-22.5z"/>
	    <animateTransform
	     attributeName="transform"
	     dur="1.33s"
	     type="rotate"
	     from="0"
	     to="720"
	     repeatCount="indefinite"
	     calcMode="spline"
	     keyTimes="0;1"
	     keySplines="0.25, 0.1, 0.25, 1" />
	</g>
	<g id="spinner-right">
		<path d="M0,22.5v-7.7c8.2,0,14.8-6.6,14.8-14.8h7.7C22.5,12.4,12.4,22.5,0,22.5z"/>
		<animateTransform
		  attributeName="transform"
		  begin="0.67s"
		  dur="1.33s"
		  type="rotate"
		  from="0"
		  to="720"
		  repeatCount="indefinite"
		  calcMode="spline"
		  keyTimes="0;1"
		  keySplines="0.25, 0.1, 0.25, 1"/>
	</g>
</g><g id="jordans-spinner" fill="#e0a55d" transform="translate(22.5,22.5)">
	<g id="spinner-left">
		<path d="M-22.5,0c0-12.4,10.1-22.5,22.5-22.5v7.7c-8.2,0-14.8,6.6-14.8,14.8H-22.5z"/>
	    <animateTransform
	     attributeName="transform"
	     dur="1.33s"
	     type="rotate"
	     from="0"
	     to="720"
	     repeatCount="indefinite"
	     calcMode="spline"
	     keyTimes="0;1"
	     keySplines="0.25, 0.1, 0.25, 1" />
	</g>
	<g id="spinner-right">
		<path d="M0,22.5v-7.7c8.2,0,14.8-6.6,14.8-14.8h7.7C22.5,12.4,12.4,22.5,0,22.5z"/>
		<animateTransform
		  attributeName="transform"
		  begin="0.67s"
		  dur="1.33s"
		  type="rotate"
		  from="0"
		  to="720"
		  repeatCount="indefinite"
		  calcMode="spline"
		  keyTimes="0;1"
		  keySplines="0.25, 0.1, 0.25, 1"/>
	</g>
</g><g id="lvmh-spinner" fill="#19222f" transform="translate(22.5,22.5)">
	<g id="spinner-left">
		<path d="M-22.5,0c0-12.4,10.1-22.5,22.5-22.5v7.7c-8.2,0-14.8,6.6-14.8,14.8H-22.5z"/>
	    <animateTransform
	     attributeName="transform"
	     dur="1.33s"
	     type="rotate"
	     from="0"
	     to="720"
	     repeatCount="indefinite"
	     calcMode="spline"
	     keyTimes="0;1"
	     keySplines="0.25, 0.1, 0.25, 1" />
	</g>
	<g id="spinner-right">
		<path d="M0,22.5v-7.7c8.2,0,14.8-6.6,14.8-14.8h7.7C22.5,12.4,12.4,22.5,0,22.5z"/>
		<animateTransform
		  attributeName="transform"
		  begin="0.67s"
		  dur="1.33s"
		  type="rotate"
		  from="0"
		  to="720"
		  repeatCount="indefinite"
		  calcMode="spline"
		  keyTimes="0;1"
		  keySplines="0.25, 0.1, 0.25, 1"/>
	</g>
</g><g id="onion-fund-spinner" fill="#f0d735" transform="translate(22.5,22.5)">
	<g id="spinner-left">
		<path d="M-22.5,0c0-12.4,10.1-22.5,22.5-22.5v7.7c-8.2,0-14.8,6.6-14.8,14.8H-22.5z"/>
	    <animateTransform
	     attributeName="transform"
	     dur="1.33s"
	     type="rotate"
	     from="0"
	     to="720"
	     repeatCount="indefinite"
	     calcMode="spline"
	     keyTimes="0;1"
	     keySplines="0.25, 0.1, 0.25, 1" />
	</g>
	<g id="spinner-right">
		<path d="M0,22.5v-7.7c8.2,0,14.8-6.6,14.8-14.8h7.7C22.5,12.4,12.4,22.5,0,22.5z"/>
		<animateTransform
		  attributeName="transform"
		  begin="0.67s"
		  dur="1.33s"
		  type="rotate"
		  from="0"
		  to="720"
		  repeatCount="indefinite"
		  calcMode="spline"
		  keyTimes="0;1"
		  keySplines="0.25, 0.1, 0.25, 1"/>
	</g>
</g><g id="roots-shoots-spinner" fill="white" transform="translate(22.5,22.5)">
	<g id="spinner-left">
		<path d="M-22.5,0c0-12.4,10.1-22.5,22.5-22.5v7.7c-8.2,0-14.8,6.6-14.8,14.8H-22.5z"/>
	    <animateTransform
	     attributeName="transform"
	     dur="1.33s"
	     type="rotate"
	     from="0"
	     to="720"
	     repeatCount="indefinite"
	     calcMode="spline"
	     keyTimes="0;1"
	     keySplines="0.25, 0.1, 0.25, 1" />
	</g>
	<g id="spinner-right">
		<path d="M0,22.5v-7.7c8.2,0,14.8-6.6,14.8-14.8h7.7C22.5,12.4,12.4,22.5,0,22.5z"/>
		<animateTransform
		  attributeName="transform"
		  begin="0.67s"
		  dur="1.33s"
		  type="rotate"
		  from="0"
		  to="720"
		  repeatCount="indefinite"
		  calcMode="spline"
		  keyTimes="0;1"
		  keySplines="0.25, 0.1, 0.25, 1"/>
	</g>
</g><g id="sa-dingding-spinner" fill="white" transform="translate(22.5,22.5)">
	<g id="spinner-left">
		<path d="M-22.5,0c0-12.4,10.1-22.5,22.5-22.5v7.7c-8.2,0-14.8,6.6-14.8,14.8H-22.5z"/>
	    <animateTransform
	     attributeName="transform"
	     dur="1.33s"
	     type="rotate"
	     from="0"
	     to="720"
	     repeatCount="indefinite"
	     calcMode="spline"
	     keyTimes="0;1"
	     keySplines="0.25, 0.1, 0.25, 1" />
	</g>
	<g id="spinner-right">
		<path d="M0,22.5v-7.7c8.2,0,14.8-6.6,14.8-14.8h7.7C22.5,12.4,12.4,22.5,0,22.5z"/>
		<animateTransform
		  attributeName="transform"
		  begin="0.67s"
		  dur="1.33s"
		  type="rotate"
		  from="0"
		  to="720"
		  repeatCount="indefinite"
		  calcMode="spline"
		  keyTimes="0;1"
		  keySplines="0.25, 0.1, 0.25, 1"/>
	</g>
</g><g id="stolen-spinner" fill="white" transform="translate(22.5,22.5)">
	<g id="spinner-left">
		<path d="M-22.5,0c0-12.4,10.1-22.5,22.5-22.5v7.7c-8.2,0-14.8,6.6-14.8,14.8H-22.5z"/>
	    <animateTransform
	     attributeName="transform"
	     dur="1.33s"
	     type="rotate"
	     from="0"
	     to="720"
	     repeatCount="indefinite"
	     calcMode="spline"
	     keyTimes="0;1"
	     keySplines="0.25, 0.1, 0.25, 1" />
	</g>
	<g id="spinner-right">
		<path d="M0,22.5v-7.7c8.2,0,14.8-6.6,14.8-14.8h7.7C22.5,12.4,12.4,22.5,0,22.5z"/>
		<animateTransform
		  attributeName="transform"
		  begin="0.67s"
		  dur="1.33s"
		  type="rotate"
		  from="0"
		  to="720"
		  repeatCount="indefinite"
		  calcMode="spline"
		  keyTimes="0;1"
		  keySplines="0.25, 0.1, 0.25, 1"/>
	</g>
</g><g id="default-spinner" fill="white" transform="translate(22.5,22.5)">
	<g id="spinner-left">
		<path d="M-22.5,0c0-12.4,10.1-22.5,22.5-22.5v7.7c-8.2,0-14.8,6.6-14.8,14.8H-22.5z"/>
	    <animateTransform
	     attributeName="transform"
	     dur="1.33s"
	     type="rotate"
	     from="0"
	     to="720"
	     repeatCount="indefinite"
	     calcMode="spline"
	     keyTimes="0;1"
	     keySplines="0.25, 0.1, 0.25, 1" />
	</g>
	<g id="spinner-right">
		<path d="M0,22.5v-7.7c8.2,0,14.8-6.6,14.8-14.8h7.7C22.5,12.4,12.4,22.5,0,22.5z"/>
		<animateTransform
		  attributeName="transform"
		  begin="0.67s"
		  dur="1.33s"
		  type="rotate"
		  from="0"
		  to="720"
		  repeatCount="indefinite"
		  calcMode="spline"
		  keyTimes="0;1"
		  keySplines="0.25, 0.1, 0.25, 1"/>
	</g>
</g>
</svg>